<svg xmlns="http://www.w3.org/2000/svg" version="1.1" xmlns:xlink="http://www.w3.org/1999/xlink" xmlns:svgjs="http://svgjs.dev/svgjs" width="1500" height="140" viewBox="0 0 1500 140"><g transform="matrix(1,0,0,1,-0.9090909090909918,-1.3402540911864236)"><svg viewBox="0 0 396 37" data-background-color="#ffffff" preserveAspectRatio="xMidYMid meet" height="140" width="1500" xmlns="http://www.w3.org/2000/svg" xmlns:xlink="http://www.w3.org/1999/xlink"><g id="tight-bounds" transform="matrix(1,0,0,1,0.2400000000000091,0.3542100098135563)"><svg viewBox="0 0 395.52 36.29157998037291" height="36.29157998037291" width="395.52"><g><svg viewBox="0 0 395.52 36.29157998037291" height="36.29157998037291" width="395.52"><g><svg viewBox="0 0 395.52 36.29157998037291" height="36.29157998037291" width="395.52"><g id="textblocktransform"><svg viewBox="0 0 395.52 36.29157998037291" height="36.29157998037291" width="395.52" id="textblock"><g><svg viewBox="0 0 395.52 36.29157998037291" height="36.29157998037291" width="395.52"><g transform="matrix(1,0,0,1,0,0)"><svg width="395.52" viewBox="1.3 -36.5 407.57 37.4" height="36.29157998037291" data-palette-color="#000000"><path d="M5.95-29.45L5.95-2.45Q5.95-1.9 6.18-1.73 6.4-1.55 7.1-1.4L7.1-1.4 8.9-1 8.9 0 1.3 0 1.3-1 3.15-1.4Q3.9-1.55 4.13-1.75 4.35-1.95 4.35-2.5L4.35-2.5 4.35-32.5Q4.35-33.05 4.13-33.25 3.9-33.45 3.15-33.6L3.15-33.6 1.3-34 1.3-35 14.1-35 24.4-12.75 33.6-35 46.8-35 46.8-34 44.95-33.6Q44.2-33.45 43.98-33.25 43.75-33.05 43.75-32.5L43.75-32.5 43.75-2.5Q43.75-1.95 43.98-1.75 44.2-1.55 44.95-1.4L44.95-1.4 46.8-1 46.8 0 30.6 0 30.6-1 32.4-1.4Q33.1-1.55 33.33-1.73 33.55-1.9 33.55-2.45L33.55-2.45 33.55-30.75 20.85 0 19.35 0 5.95-29.45ZM81.8-12.15Q81.8-5.7 77.77-2.55 73.75 0.6 66.2 0.6L66.2 0.6Q58.65 0.6 54.62-2.55 50.6-5.7 50.6-12.15L50.6-12.15Q50.6-18.6 54.62-21.75 58.65-24.9 66.2-24.9L66.2-24.9Q73.75-24.9 77.77-21.75 81.8-18.6 81.8-12.15L81.8-12.15ZM61-12.15Q61-7.7 61.42-5.3 61.85-2.9 62.95-1.8 64.05-0.7 66.2-0.7L66.2-0.7Q68.35-0.7 69.45-1.8 70.55-2.9 70.97-5.3 71.4-7.7 71.4-12.15L71.4-12.15Q71.4-16.6 70.97-19 70.55-21.4 69.45-22.5 68.35-23.6 66.2-23.6L66.2-23.6Q64.05-23.6 62.95-22.5 61.85-21.4 61.42-19 61-16.6 61-12.15L61-12.15ZM100.2-23.55L98.9-23.25Q97.75-23 97.75-22.3L97.75-22.3Q97.75-22 98-21.5L98-21.5 103.8-9.85 109.25-22.55Q109.4-22.85 109.4-23.05L109.4-23.05Q109.4-23.35 108.75-23.4L108.75-23.4 107.45-23.55 107.45-24.3 113.2-24.3 113.2-23.55 111.9-23.35Q111.3-23.25 111.05-23.1 110.8-22.95 110.55-22.4L110.55-22.4 100.4 0.9 99.5 0.9 87.4-22.2Q87.15-22.65 86.82-22.85 86.5-23.05 86-23.15L86-23.15 84.5-23.55 84.5-24.3 100.2-24.3 100.2-23.55ZM122.64-28.1Q120.29-28.1 118.89-29.18 117.49-30.25 117.49-32.3L117.49-32.3Q117.49-34.35 118.89-35.43 120.29-36.5 122.64-36.5L122.64-36.5Q124.99-36.5 126.39-35.43 127.79-34.35 127.79-32.3L127.79-32.3Q127.79-30.25 126.39-29.18 124.99-28.1 122.64-28.1L122.64-28.1ZM114.69 0L114.69-0.9 116.44-1.3Q117.19-1.45 117.42-1.65 117.64-1.85 117.64-2.4L117.64-2.4 117.64-21.3Q117.64-21.85 117.42-22.05 117.19-22.25 116.44-22.4L116.44-22.4 114.69-22.8 114.69-23.7 126.69-25.2 127.64-25.2 127.64-2.4Q127.64-1.85 127.87-1.65 128.09-1.45 128.84-1.3L128.84-1.3 130.59-0.9 130.59 0 114.69 0ZM144.69-12.8Q144.74-7.25 146.47-4.35 148.19-1.45 152.94-1.45L152.94-1.45Q155.29-1.45 157.12-2.15 158.94-2.85 160.89-4.15L160.89-4.15 161.54-3.2Q156.89 0.6 149.24 0.6L149.24 0.6Q142.34 0.6 138.37-2.73 134.39-6.05 134.39-12.45L134.39-12.45Q134.39-18.5 138.44-21.7 142.49-24.9 149.79-24.9L149.79-24.9Q153.94-24.9 156.79-23.6 159.64-22.3 161.02-20.13 162.39-17.95 162.39-15.3L162.39-15.3Q162.39-13.95 162.14-12.8L162.14-12.8 144.69-12.8ZM149.49-23.7Q146.74-23.7 145.74-21.4 144.74-19.1 144.69-14.1L144.69-14.1 153.09-14.1 153.09-17.85Q153.09-20.9 152.37-22.3 151.64-23.7 149.49-23.7L149.49-23.7ZM178.19-0.6Q180.54-0.6 181.66-1.3 182.79-2 182.79-3.75L182.79-3.75Q182.79-4.95 182.19-5.7 181.59-6.45 180.29-7.05 178.99-7.65 176.14-8.7L176.14-8.7Q171.29-10.45 169.24-12.33 167.19-14.2 167.19-17.5L167.19-17.5Q167.19-21.25 169.99-23.08 172.79-24.9 178.49-24.9L178.49-24.9Q181.39-24.9 184.19-24.33 186.99-23.75 188.54-23L188.54-23 187.94-17 187.09-17Q185.74-20.35 183.84-22.08 181.94-23.8 178.34-23.8L178.34-23.8Q176.04-23.8 174.79-23.18 173.54-22.55 173.54-20.9L173.54-20.9Q173.54-19.75 174.11-19.05 174.69-18.35 175.91-17.75 177.14-17.15 179.99-16L179.99-16Q184.09-14.35 186.19-13.15 188.29-11.95 189.29-10.4 190.29-8.85 190.29-6.5L190.29-6.5Q190.29-2.75 187.41-1.07 184.54 0.6 178.79 0.6L178.79 0.6Q175.74 0.6 172.41 0.03 169.09-0.55 167.44-1.3L167.44-1.3 168.14-8.1 168.99-8.1Q169.89-4.15 172.19-2.38 174.49-0.6 178.19-0.6L178.19-0.6ZM222.83-0.75Q226.08-0.75 227.88-2 229.68-3.25 229.68-5.6L229.68-5.6Q229.68-7.5 228.86-8.75 228.03-10 226.33-11.05 224.63-12.1 221.33-13.55L221.33-13.55Q217.13-15.4 214.83-16.82 212.53-18.25 211.21-20.43 209.88-22.6 209.88-25.95L209.88-25.95Q209.88-30.75 213.28-33.18 216.68-35.6 224.08-35.6L224.08-35.6Q227.38-35.6 230.46-34.95 233.53-34.3 235.63-33.3L235.63-33.3 234.43-25.65 233.08-25.65Q232.13-28.7 231.11-30.5 230.08-32.3 228.33-33.27 226.58-34.25 223.68-34.25L223.68-34.25Q217.08-34.25 217.08-29.95L217.08-29.95Q217.08-28.2 217.88-27.05 218.68-25.9 220.28-24.98 221.88-24.05 225.58-22.25L225.58-22.25 226.58-21.8Q231.23-19.55 233.46-18.15 235.68-16.75 236.98-14.68 238.28-12.6 238.28-9.3L238.28-9.3Q238.28-4.4 234.61-1.9 230.93 0.6 223.08 0.6L223.08 0.6Q219.93 0.6 216.11-0.1 212.28-0.8 210.18-1.8L210.18-1.8 211.53-10.6 212.83-10.6Q213.48-6.7 214.78-4.55 216.08-2.4 218.03-1.58 219.98-0.75 222.83-0.75L222.83-0.75ZM245.33-23L242.08-23 242.08-24.3Q243.63-24.3 244.38-24.55 245.13-24.8 245.88-25.45L245.88-25.45 254.78-33.45 255.23-33.45 255.23-24.3 261.68-24.3 261.68-23 255.23-23 255.23-6.2Q255.23-3.8 255.81-2.83 256.38-1.85 257.78-1.85L257.78-1.85Q258.88-1.85 259.73-2.3 260.58-2.75 261.58-3.85L261.58-3.85 262.38-2.9Q259.23 0.6 253.08 0.6L253.08 0.6Q248.93 0.6 247.13-1.15 245.33-2.9 245.33-6.6L245.33-6.6 245.33-23ZM284.18 0Q282.78 0 282.2-0.58 281.63-1.15 281.63-2.5L281.63-2.5 281.63-2.75Q278.28 0.5 272.08 0.5L272.08 0.5Q268.83 0.5 267-0.98 265.18-2.45 265.18-5.55L265.18-5.55Q265.18-8.65 267-10.4 268.83-12.15 272.33-12.9 275.83-13.65 281.63-13.8L281.63-13.8 281.63-17.45Q281.63-20.25 280.53-21.48 279.43-22.7 276.68-22.7L276.68-22.7Q274.38-22.7 272.4-22.08 270.43-21.45 268.38-20.2L268.38-20.2 267.73-21.15Q270.13-22.85 273.5-23.88 276.88-24.9 281.08-24.9L281.08-24.9Q286.73-24.9 289.13-22.68 291.53-20.45 291.53-16.25L291.53-16.25 291.53-2.4Q291.53-1.85 291.75-1.65 291.98-1.45 292.73-1.3L292.73-1.3 294.48-0.9 294.48 0 284.18 0ZM277.68-2.65Q279.83-2.65 281.63-4.35L281.63-4.35 281.63-12.45Q278.83-12.25 277.38-11.58 275.93-10.9 275.4-9.65 274.88-8.4 274.88-6.25L274.88-6.25Q274.88-4.35 275.55-3.5 276.23-2.65 277.68-2.65L277.68-2.65ZM299.83-23L296.58-23 296.58-24.3Q298.13-24.3 298.88-24.55 299.63-24.8 300.38-25.45L300.38-25.45 309.28-33.45 309.73-33.45 309.73-24.3 316.18-24.3 316.18-23 309.73-23 309.73-6.2Q309.73-3.8 310.3-2.83 310.88-1.85 312.28-1.85L312.28-1.85Q313.38-1.85 314.23-2.3 315.08-2.75 316.08-3.85L316.08-3.85 316.88-2.9Q313.73 0.6 307.58 0.6L307.58 0.6Q303.43 0.6 301.63-1.15 299.83-2.9 299.83-6.6L299.83-6.6 299.83-23ZM327.02-28.1Q324.67-28.1 323.27-29.18 321.87-30.25 321.87-32.3L321.87-32.3Q321.87-34.35 323.27-35.43 324.67-36.5 327.02-36.5L327.02-36.5Q329.37-36.5 330.77-35.43 332.17-34.35 332.17-32.3L332.17-32.3Q332.17-30.25 330.77-29.18 329.37-28.1 327.02-28.1L327.02-28.1ZM319.07 0L319.07-0.9 320.82-1.3Q321.57-1.45 321.8-1.65 322.02-1.85 322.02-2.4L322.02-2.4 322.02-21.3Q322.02-21.85 321.8-22.05 321.57-22.25 320.82-22.4L320.82-22.4 319.07-22.8 319.07-23.7 331.07-25.2 332.02-25.2 332.02-2.4Q332.02-1.85 332.25-1.65 332.47-1.45 333.22-1.3L333.22-1.3 334.97-0.9 334.97 0 319.07 0ZM369.97-12.15Q369.97-5.7 365.95-2.55 361.92 0.6 354.37 0.6L354.37 0.6Q346.82 0.6 342.8-2.55 338.77-5.7 338.77-12.15L338.77-12.15Q338.77-18.6 342.8-21.75 346.82-24.9 354.37-24.9L354.37-24.9Q361.92-24.9 365.95-21.75 369.97-18.6 369.97-12.15L369.97-12.15ZM349.17-12.15Q349.17-7.7 349.6-5.3 350.02-2.9 351.12-1.8 352.22-0.7 354.37-0.7L354.37-0.7Q356.52-0.7 357.62-1.8 358.72-2.9 359.15-5.3 359.57-7.7 359.57-12.15L359.57-12.15Q359.57-16.6 359.15-19 358.72-21.4 357.62-22.5 356.52-23.6 354.37-23.6L354.37-23.6Q352.22-23.6 351.12-22.5 350.02-21.4 349.6-19 349.17-16.6 349.17-12.15L349.17-12.15ZM405.92-2.4Q405.92-1.85 406.14-1.65 406.37-1.45 407.12-1.3L407.12-1.3 408.87-0.9 408.87 0 398.47 0Q397.12 0 396.52-0.7 395.92-1.4 395.92-2.8L395.92-2.8 395.92-18Q395.92-20.25 395.19-21.2 394.47-22.15 392.77-22.15L392.77-22.15Q389.77-22.15 386.62-19.65L386.62-19.65 386.62-2.4Q386.62-1.85 386.84-1.63 387.07-1.4 387.77-1.25L387.77-1.25 389.47-0.9 389.47 0 373.67 0 373.67-0.9 375.42-1.3Q376.17-1.45 376.39-1.65 376.62-1.85 376.62-2.4L376.62-2.4 376.62-21.3Q376.62-21.85 376.39-22.05 376.17-22.25 375.42-22.4L375.42-22.4 373.67-22.8 373.67-23.7 385.67-25.2 386.52-25.2 386.52-21.15Q388.42-22.7 391.17-23.8 393.92-24.9 397.27-24.9L397.27-24.9Q401.92-24.9 403.92-22.95 405.92-21 405.92-17.1L405.92-17.1 405.92-2.4Z" opacity="1" transform="matrix(1,0,0,1,0,0)" fill="#000000" class="wordmark-text-0" data-fill-palette-color="primary" id="text-0"></path></svg></g></svg></g></svg></g></svg></g><g></g></svg></g><defs></defs></svg><rect width="395.52" height="36.29157998037291" fill="none" stroke="none" visibility="hidden"></rect></g></svg></g></svg>